<?xml version="1.0" encoding="UTF-8"?>
<svg width="120px" height="34px" viewBox="0 0 120 34" version="1.1" xmlns="http://www.w3.org/2000/svg" xmlns:xlink="http://www.w3.org/1999/xlink">
    <title>663C2167-4603-41AF-BE5F-E5EAE10362B6</title>
    <defs>
        <path d="M18.0950647,9.38962931 C17.9109987,9.38962931 17.740713,9.48806032 17.6472036,9.64751855 L17.6472036,9.64751855 L14.6106069,14.9096403 C14.4117763,15.2531646 14.6598224,15.6842924 15.0564994,15.6842924 L15.0564994,15.6842924 L21.0981948,15.6842924 C21.2812765,15.6842924 21.4505778,15.5868457 21.5431029,15.4283718 L21.5431029,15.4283718 L24.6111975,10.1652657 C24.8110125,9.82174144 24.5629663,9.38962931 24.165305,9.38962931 L24.165305,9.38962931 L18.0950647,9.38962931 Z" id="path-1"></path>
        <linearGradient x1="1.15405102%" y1="68.409934%" x2="86.5620338%" y2="36.1193574%" id="linearGradient-3">
            <stop stop-color="#0B54C6" offset="0%"></stop>
            <stop stop-color="#26A089" offset="100%"></stop>
        </linearGradient>
    </defs>
    <g id="Page1" stroke="none" stroke-width="1" fill="none" fill-rule="evenodd">
        <g id="Assets" transform="translate(-68.000000, -19.000000)">
            <g id="Group-2-Copy" transform="translate(68.000000, 19.156141)">
                <g id="Group" transform="translate(0.000000, 0.643837)">
                    <path d="M32.0212808,29.9818887 C32.3421659,29.7171093 32.6217099,29.3991771 32.8362895,29.0280922 L34.3196449,26.4590429 L36.6632872,27.8114849 C37.4192374,28.2485186 38.3877985,27.9896451 38.8238479,27.2327106 L39.7609111,25.6105676 C40.1979448,24.8536331 39.9390712,23.8860563 39.1821367,23.4490226 L36.8394787,22.0965805 L38.8632203,18.5894836 C38.9685414,18.4073863 39.0551607,18.2174144 39.1250468,18.0235053 L33.0882729,18.0235053 L29.3754552,24.4559718 C29.3026163,24.5809792 29.2150127,24.6922062 29.1224875,24.7985117 L32.0212808,29.9818887 Z" id="Fill-13" fill="#27A089"></path>
                    <path d="M22.4387267,16.4596334 L25.5097742,21.7266768 C25.7086048,22.0692167 26.2037128,22.0672481 26.4015591,21.7247082 L29.4430773,16.4576648 C29.5356025,16.2972223 29.5356025,16.1013446 29.4430773,15.9418863 L26.4015591,10.674843 C26.2037128,10.3313188 25.7086048,10.3303345 25.5097742,10.6728744 L22.4387267,15.9399177 C22.3452172,16.1003603 22.3452172,16.2982066 22.4387267,16.4596334" id="Fill-15" fill="#27A089"></path>
                    <path d="M21.0977026,16.7153572 L15.0560072,16.7153572 C14.6593303,16.7153572 14.4112841,17.1455007 14.6101148,17.4890249 L17.6476957,22.7511467 C17.7402209,22.910605 17.9105065,23.0100203 18.0945725,23.0100203 L24.1648129,23.0100203 C24.5634585,23.0100203 24.8105203,22.5779081 24.6107054,22.2333996 L21.5426108,16.9712778 C21.4500856,16.8128039 21.2817686,16.7153572 21.0977026,16.7153572" id="Fill-23" fill="#0C54C6"></path>
                    <path d="M26.0911077,6.12634604 C26.9661594,6.12634604 27.7732937,6.59290903 28.2113117,7.34984349 L32.6131464,14.9762781 C32.7263421,15.1701872 32.8080398,15.3749237 32.8621769,15.5855661 L39.7090379,15.5855661 C39.6332461,15.0884895 39.4708349,14.6002717 39.2099927,14.150442 L32.224344,2.04933362 C31.4930016,0.781542217 30.1395752,3.80793686e-15 28.6749217,3.80793686e-15 L14.7016556,3.80793686e-15 C14.1829242,3.80793686e-15 13.6789574,0.10335256 13.2094415,0.286434238 L16.632872,6.21591826 C16.8435144,6.15784397 17.0620312,6.12634604 17.2854696,6.12634604 L26.0911077,6.12634604 Z" id="Fill-32" fill="#27A089"></path>
                    <path d="M32.8623738,16.8129023 C32.8072524,17.0235447 32.7255547,17.2292655 32.6133433,17.4231746 L28.2105242,25.0496092 C28.0983129,25.242534 27.9614938,25.4167569 27.8069571,25.569325 L31.2303876,31.498809 C31.6231274,31.1848141 31.964683,30.7999488 32.2245408,30.3501191 L39.2101896,18.2480265 C39.4710318,17.7981967 39.6334429,17.3109632 39.7092348,16.8129023 L32.8623738,16.8129023 Z" id="Fill-34" fill="#27A089"></path>
                    <path d="M17.2857649,26.2725161 C16.4116975,26.2725161 15.6045633,25.8059531 15.1665453,25.0490186 L10.7637262,17.422584 C10.6515149,17.2286749 10.5688328,17.0239384 10.5146957,16.8132961 L3.66881902,16.8132961 C3.74362659,17.311357 3.90702207,17.7985905 4.16687993,18.2484202 L11.153513,30.3505128 C11.8848554,31.6173199 13.2372975,32.3988621 14.7019509,32.3988621 L28.675217,32.3988621 C29.1949328,32.3988621 29.6988995,32.2964939 30.1674311,32.1124279 L26.7440006,26.1829439 C26.5343426,26.2410182 26.3158257,26.2725161 26.091403,26.2725161 L17.2857649,26.2725161 Z" id="Fill-36" fill="#0C54C6"></path>
                    <path d="M10.5144989,15.5858614 C10.5696203,15.375219 10.6523023,15.1694982 10.7635293,14.9755891 L15.1673327,7.35013879 C15.2785598,7.1562297 15.4153789,6.98200681 15.5708999,6.82943875 L12.1474693,0.900939032 C11.7537453,1.21394964 11.413174,1.5997992 11.1533161,2.04962892 L4.16668307,14.1507372 C3.90682521,14.600567 3.74342973,15.0887848 3.66862216,15.5858614 L10.5144989,15.5858614 Z" id="Fill-38" fill="#0C54C6"></path>
                    <polygon id="Fill-40" fill="#0C54C6" points="3.07941414 16.3880741 12.7620726 16.3880741 12.7620726 16.0120676 3.07941414 16.0120676"></polygon>
                    <polygon id="Fill-42" fill="#27A089" points="39.8325689 16.3870898 47.7365789 16.3870898 47.7365789 16.0110833 39.8325689 16.0110833"></polygon>
                    <polygon id="Fill-43" fill="#27A089" points="37.7881568 16.3870898 39.4240802 16.3870898 39.4240802 16.0110833 37.7881568 16.0110833"></polygon>
                    <polygon id="Fill-44" fill="#27A089" points="34.1836132 16.3870898 35.0015749 16.3870898 35.0015749 16.0110833 34.1836132 16.0110833"></polygon>
                    <polygon id="Fill-45" fill="#0C54C6" points="1.31060889 16.3870898 2.94653228 16.3870898 2.94653228 16.0110833 1.31060889 16.0110833"></polygon>
                    <polygon id="Fill-46" fill="#0C54C6" points="0.0831742032 16.3870898 0.901135894 16.3870898 0.901135894 16.0110833 0.0831742032 16.0110833"></polygon>
                    <mask id="mask-2" fill="white">
                        <use xlink:href="#path-1"></use>
                    </mask>
                    <g id="Clip-30"></g>
                    <path d="M18.0950647,9.38962931 C17.9109987,9.38962931 17.740713,9.48806032 17.6472036,9.64751855 L17.6472036,9.64751855 L14.6106069,14.9096403 C14.4117763,15.2531646 14.6598224,15.6842924 15.0564994,15.6842924 L15.0564994,15.6842924 L21.0981948,15.6842924 C21.2812765,15.6842924 21.4505778,15.5868457 21.5431029,15.4283718 L21.5431029,15.4283718 L24.6111975,10.1652657 C24.8110125,9.82174144 24.5629663,9.38962931 24.165305,9.38962931 L24.165305,9.38962931 L18.0950647,9.38962931 Z" id="Fill-29" fill="url(#linearGradient-3)" mask="url(#mask-2)"></path>
                </g>
                <g id="Group" transform="translate(54.122488, -0.000000)" fill="#000000">
                    <path d="M5.56332067,7.86739374 C1.39083017,7.86739374 -3.80793686e-15,10.8665866 -3.80793686e-15,14.6049964 L-3.80793686e-15,23.2118038 C-3.80793686e-15,27.6884462 1.08569404,30.687639 5.38909778,30.687639 C9.91003406,30.687639 10.9100931,27.4718979 10.9100931,23.6458846 L10.9100931,23.3417328 L7.82329665,23.3417328 L7.82329665,24.03764 C7.82329665,26.86261 7.21499301,28.0368919 5.47571707,28.0368919 C3.51989291,28.0368919 3.1291218,25.9501545 3.1291218,23.9067268 L3.1291218,14.4307735 C3.1291218,11.823336 3.82404473,10.5191251 5.51902671,10.5191251 C7.47583519,10.5191251 7.82329665,12.2574168 7.82329665,14.2565506 L7.82329665,15.0390771 L10.9100931,15.0390771 L10.9100931,14.1266217 C10.9100931,11.1707384 10.1275666,7.86739374 5.56332067,7.86739374" id="Fill-1"></path>
                    <path d="M21.9726559,23.2117054 C21.9726559,26.644979 20.8859775,27.9058803 18.8425498,27.9058803 C16.8867256,27.9058803 15.713428,26.644979 15.713428,23.3416343 L15.713428,8.30236038 C15.713428,5.12894462 16.7125027,3.73713015 18.7992401,3.73713015 C20.9292872,3.73713015 21.9726559,5.21556391 21.9726559,8.30236038 L21.9726559,23.2117054 Z M25.1460716,23.0807922 L25.1460716,8.43228931 C25.1460716,3.86804339 23.1892631,0.912160167 18.8858594,0.912160167 C14.7999882,0.912160167 12.5400122,3.52058192 12.5400122,8.43228931 L12.5400122,23.1241018 C12.5400122,27.8625706 14.1916845,30.7318346 18.7116365,30.7318346 C19.5817666,30.7318346 20.3209835,30.644231 21.0159065,30.4276827 L25.102762,33.6877178 L27.0152765,31.5143611 L23.5810186,28.7750261 C24.623403,27.5151092 25.1460716,25.6025946 25.1460716,23.0807922 L25.1460716,23.0807922 Z" id="Fill-3"></path>
                    <path d="M39.0337028,8.21495364 L35.9035967,8.21495364 L35.9035967,22.7335276 C35.9035967,26.9493277 34.6869894,27.8627675 33.1219363,27.8627675 C31.5135736,27.8627675 30.7743568,26.8627084 30.7743568,24.210977 L30.7743568,8.21495364 L27.6885446,8.21495364 L27.6885446,25.0368132 C27.6885446,29.9928145 30.2103471,30.6877375 31.9919483,30.6877375 C33.9044629,30.6877375 35.295293,30.0361242 35.9912003,28.0369904 C35.9912003,28.8185326 36.0345099,29.9495049 36.1221135,30.340276 L39.0770124,30.340276 C39.0337028,29.2969073 39.0337028,27.2101699 39.0337028,24.3418903 L39.0337028,8.21495364 Z" id="Fill-6"></path>
                    <path d="M49.5553871,23.3419296 C49.5553871,26.4277418 48.6419474,27.8195563 46.9912593,27.8195563 C44.9901569,27.8195563 44.1643207,26.2545032 44.1643207,22.9068646 L44.1643207,16.1259523 C44.1643207,13.0834498 44.5993858,10.6925606 47.1202039,10.6925606 C48.9470835,10.6925606 49.5553871,12.214304 49.5553871,14.7351222 L49.5553871,23.3419296 Z M48.1635727,7.86759061 C46.0778196,7.86759061 44.8179026,8.86666535 44.2086147,10.2584798 L44.2086147,0 L41.1228025,0 L41.1228025,24.4719176 C41.1228025,27.123649 41.1228025,29.0794732 41.0785086,30.3403744 L43.8601689,30.3403744 C43.9477725,29.6877768 43.9910822,29.1237672 43.9910822,28.2103274 C44.5127665,29.6011575 45.5984605,30.6445263 47.6861823,30.6445263 C51.7287438,30.6445263 52.6411993,27.3411816 52.6411993,22.8202453 L52.6411993,14.2567474 C52.6411993,10.4750281 51.3379727,7.86759061 48.1635727,7.86759061 L48.1635727,7.86759061 Z" id="Fill-8"></path>
                    <path d="M57.7047857,14.6480107 C57.7047857,12.2571215 58.2264701,10.5188299 60.3132075,10.5188299 C62.5298738,10.5188299 62.8783196,12.5612733 62.8783196,14.6047011 L62.8783196,17.3863614 L57.7047857,17.3863614 L57.7047857,14.6480107 Z M65.8775125,19.9081639 L65.8775125,14.9088529 C65.8775125,11.0405142 64.6166112,7.86709845 60.3565171,7.86709845 C55.7922712,7.86709845 54.6189736,11.5621986 54.6189736,14.9088529 L54.6189736,23.1681989 C54.6189736,27.6458255 55.6623423,30.6873437 60.3132075,30.6873437 C65.2258992,30.6873437 65.7908932,26.7323858 65.7908932,24.1672737 L65.7908932,24.0373447 L62.790716,24.0373447 L62.790716,24.2105833 C62.790716,26.2973207 62.3999449,28.0365966 60.2698978,28.0365966 C58.0955568,28.0365966 57.6614761,25.7323267 57.6614761,23.5156604 L57.6614761,19.9081639 L65.8775125,19.9081639 Z" id="Fill-10"></path>
                </g>
            </g>
        </g>
    </g>
</svg>