<?xml version="1.0" encoding="UTF-8"?>
<svg width="29px" height="18px" viewBox="0 0 29 18" version="1.1" xmlns="http://www.w3.org/2000/svg" xmlns:xlink="http://www.w3.org/1999/xlink">
    <title>88641FC1-CFCC-45A3-BB4D-F41F40530CB2</title>
    <g id="Page1" stroke="none" stroke-width="1" fill="none" fill-rule="evenodd">
        <g id="Assets" transform="translate(-210.000000, -252.000000)" fill="#EAF1FA">
            <path d="M216.91,264.59 L215.5,266 L210.5,261 L215.5,256 L216.91,257.41 L214.33,260 L224,260 L224,262 L214.33,262 L216.91,264.59 L216.91,264.59 Z M236.5,252 L222.5,252 C221.39,252 220.5,252.9 220.5,254 L220.5,258 L222.5,258 L222.5,254 L236.5,254 L236.5,268 L222.5,268 L222.5,264 L220.5,264 L220.5,268 C220.5,269.1 221.39,270 222.5,270 L236.5,270 C237.6,270 238.5,269.1 238.5,268 L238.5,254 C238.5,252.9 237.6,252 236.5,252 L236.5,252 Z" id="Shape"></path>
        </g>
    </g>
</svg>