<?xml version="1.0" encoding="UTF-8"?>
<svg width="14px" height="13px" viewBox="0 0 14 13" version="1.1" xmlns="http://www.w3.org/2000/svg" xmlns:xlink="http://www.w3.org/1999/xlink">
    <title>A80501D0-C821-4000-BB84-CA50A4489127</title>
    <g id="Page1" stroke="none" stroke-width="1" fill="none" fill-rule="evenodd">
        <g id="Assets" transform="translate(-160.000000, -208.000000)" fill="#0C54C6">
            <path d="M166.181911,214.957289 C166.344079,214.957289 166.492372,215.043142 166.573889,215.182763 L166.573889,215.182763 L169.276979,219.818861 C169.453022,220.122384 169.235353,220.503088 168.884133,220.503088 L168.884133,220.503088 L163.536057,220.503088 C163.373889,220.503088 163.223862,220.4155 163.142345,220.275012 L163.142345,220.275012 L160.466139,215.638915 C160.290962,215.336259 160.509499,214.957289 160.858984,214.957289 L160.858984,214.957289 Z M170.069087,209.633668 C170.244263,209.33188 170.680469,209.332747 170.854778,209.635403 L170.854778,209.635403 L173.534453,214.275836 C173.615971,214.416324 173.615971,214.588899 173.534453,214.730254 L173.534453,214.730254 L170.854778,219.370687 C170.680469,219.672476 170.244263,219.67421 170.069087,219.372422 L170.069087,219.372422 L167.363396,214.731988 C167.281011,214.589766 167.281011,214.415457 167.363396,214.274102 L167.363396,214.274102 Z M168.884567,208.503088 L168.962958,208.509638 C169.266205,208.561196 169.439914,208.907074 169.277412,209.186449 L169.277412,209.186449 L166.574323,213.823413 L166.528184,213.888595 C166.442748,213.989267 166.316762,214.048888 166.182345,214.048888 L166.182345,214.048888 L160.859418,214.048888 L160.781211,214.042353 C160.478641,213.990908 160.304871,213.645769 160.466572,213.366395 L160.466572,213.366395 L163.141911,208.730297 L163.188483,208.664686 C163.274642,208.563311 163.401351,208.503088 163.536491,208.503088 L163.536491,208.503088 L168.884567,208.503088 Z" id="Combined-Shape-Copy-13"></path>
        </g>
    </g>
</svg>