<?xml version="1.0" encoding="UTF-8"?>
<svg width="1091px" height="740px" viewBox="0 0 1091 740" version="1.1" xmlns="http://www.w3.org/2000/svg" xmlns:xlink="http://www.w3.org/1999/xlink">
    <title>3931CD4B-4D45-4CA9-8D1E-498F854F0308</title>
    <defs>
        <filter color-interpolation-filters="auto" id="filter-1">
            <feColorMatrix in="SourceGraphic" type="matrix" values="0 0 0 0 1.000000 0 0 0 0 1.000000 0 0 0 0 1.000000 0 0 0 1.000000 0"></feColorMatrix>
        </filter>
        <path d="M413.296856,214.462028 C409.092732,214.462028 405.203355,216.710223 403.06757,220.352298 L403.06757,220.352298 L333.710767,340.540782 C329.169414,348.386981 334.834864,358.234074 343.895088,358.234074 L343.895088,358.234074 L481.889273,358.234074 C486.070915,358.234074 489.93781,356.008361 492.051113,352.388768 L492.051113,352.388768 L562.127339,232.177802 C566.691174,224.331603 561.025724,214.462028 551.943017,214.462028 L551.943017,214.462028 L413.296856,214.462028 Z" id="path-2"></path>
        <linearGradient x1="1.15405102%" y1="68.409934%" x2="86.5620338%" y2="36.1193574%" id="linearGradient-4">
            <stop stop-color="#0B54C6" offset="0%"></stop>
            <stop stop-color="#26A089" offset="100%"></stop>
        </linearGradient>
    </defs>
    <g id="Page1" stroke="none" stroke-width="1" fill="none" fill-rule="evenodd" opacity="0.509765625">
        <g id="Group" transform="translate(-388.000000, -167.000000)" filter="url(#filter-1)">
            <g transform="translate(388.000000, 167.000000)">
                <path d="M731.375925,684.795581 C738.70504,678.747938 745.089913,671.486269 749.990977,663.010576 L783.87127,604.332696 L837.400783,635.22289 C854.666918,645.204874 876.789153,639.292123 886.748655,622.003506 L908.151468,584.953259 C918.133452,567.664642 912.2207,545.564889 894.932083,535.582905 L841.425052,504.692711 L887.647933,424.589537 C890.053501,420.430377 892.031912,416.091362 893.62813,411.662418 L755.746355,411.662418 L670.944454,558.581936 C669.28079,561.437143 667.279897,563.977603 665.166594,566.405653 L731.375925,684.795581 Z" id="Fill-13" fill="#27A089"></path>
                <path d="M512.507436,375.943102 L582.651108,496.243996 C587.192461,504.067713 598.50088,504.022749 603.019751,496.199032 L672.488964,375.898139 C674.602267,372.233581 674.602267,367.759674 672.488964,364.117599 L603.019751,243.816705 C598.50088,235.970506 587.192461,235.948024 582.651108,243.771741 L512.507436,364.072635 C510.371651,367.737192 510.371651,372.256063 512.507436,375.943102" id="Fill-15" fill="#27A089"></path>
                <path d="M481.878032,381.783912 L343.883847,381.783912 C334.823623,381.783912 329.158173,391.608522 333.699526,399.454722 L403.078811,519.643205 C405.192114,523.285281 409.081491,525.555957 413.285615,525.555957 L551.931776,525.555957 C561.036965,525.555957 566.679933,515.686383 562.116098,507.817702 L492.039872,387.629218 C489.926569,384.009625 486.082156,381.783912 481.878032,381.783912" id="Fill-23" fill="#0C54C6"></path>
                <path d="M595.928945,139.927632 C615.915395,139.927632 634.350591,150.584075 644.355057,167.872691 L744.89432,342.06281 C747.479743,346.491753 749.345745,351.167998 750.582252,355.979134 L906.966669,355.979134 C905.235559,344.625752 901.526038,333.474706 895.568322,323.200457 L736.013951,46.8074118 C719.309865,17.8506652 688.397189,0 654.944053,0 L335.790347,0 C323.942361,0 312.431605,2.36060434 301.707716,6.54224631 L379.899925,141.97349 C384.711061,140.647055 389.702053,139.927632 394.805455,139.927632 L595.928945,139.927632 Z" id="Fill-32" fill="#27A089"></path>
                <path d="M750.586748,384.011873 C749.327759,388.823009 747.461758,393.521736 744.898816,397.950679 L644.337071,572.140798 C641.774129,576.547259 638.649139,580.526564 635.119473,584.011265 L713.311682,719.442508 C722.281978,712.270768 730.083214,703.480327 736.018447,693.206077 L895.572819,416.79055 C901.530534,406.516301 905.240056,395.387738 906.971165,384.011873 L750.586748,384.011873 Z" id="Fill-34" fill="#27A089"></path>
                <path d="M394.8122,600.072368 C374.848232,600.072368 356.413036,589.415925 346.40857,572.127309 L245.846825,397.93719 C243.283883,393.508247 241.3954,388.832002 240.158893,384.020866 L83.7969576,384.020866 C85.5055855,395.39673 89.2375886,406.525294 95.1728224,416.799543 L254.749676,693.21507 C271.453762,722.149335 302.343956,740 335.797091,740 L654.950798,740 C666.821265,740 678.332022,737.661878 689.033428,733.457754 L610.84122,598.02651 C606.052565,599.352945 601.061573,600.072368 595.935689,600.072368 L394.8122,600.072368 Z" id="Fill-36" fill="#0C54C6"></path>
                <path d="M240.154396,355.985879 C241.413385,351.174742 243.301869,346.476016 245.842329,342.047072 L346.426555,167.879436 C348.967015,163.450493 352.092006,159.471188 355.644153,155.986487 L277.451945,20.5777253 C268.459166,27.7269841 260.680413,36.539907 254.745179,46.8141563 L95.168326,323.207202 C89.2330922,333.481451 85.5010892,344.632496 83.7924613,355.985879 L240.154396,355.985879 Z" id="Fill-38" fill="#0C54C6"></path>
                <polygon id="Fill-40" fill="#0C54C6" points="70.3347683 374.308665 291.489672 374.308665 291.489672 365.720562 70.3347683 365.720562"></polygon>
                <polygon id="Fill-42" fill="#27A089" points="909.788153 374.286183 1090.31818 374.286183 1090.31818 365.69808 909.788153 365.69808"></polygon>
                <polygon id="Fill-43" fill="#27A089" points="863.093151 374.286183 900.458146 374.286183 900.458146 365.69808 863.093151 365.69808"></polygon>
                <polygon id="Fill-44" fill="#27A089" points="780.764265 374.286183 799.446762 374.286183 799.446762 365.69808 780.764265 365.69808"></polygon>
                <polygon id="Fill-45" fill="#0C54C6" points="29.9347112 374.286183 67.2997056 374.286183 67.2997056 365.69808 29.9347112 365.69808"></polygon>
                <polygon id="Fill-46" fill="#0C54C6" points="1.89972444 374.286183 20.5822216 374.286183 20.5822216 365.69808 1.89972444 365.69808"></polygon>
                <mask id="mask-3" fill="white">
                    <use xlink:href="#path-2"></use>
                </mask>
                <g id="Clip-30"></g>
                <path d="M413.296856,214.462028 C409.092732,214.462028 405.203355,216.710223 403.06757,220.352298 L403.06757,220.352298 L333.710767,340.540782 C329.169414,348.386981 334.834864,358.234074 343.895088,358.234074 L343.895088,358.234074 L481.889273,358.234074 C486.070915,358.234074 489.93781,356.008361 492.051113,352.388768 L492.051113,352.388768 L562.127339,232.177802 C566.691174,224.331603 561.025724,214.462028 551.943017,214.462028 L551.943017,214.462028 L413.296856,214.462028 Z" id="Fill-29" fill="url(#linearGradient-4)" mask="url(#mask-3)"></path>
            </g>
        </g>
    </g>
</svg>