<?xml version="1.0" encoding="UTF-8"?>
<svg width="132px" height="121px" viewBox="0 0 132 121" version="1.1" xmlns="http://www.w3.org/2000/svg" xmlns:xlink="http://www.w3.org/1999/xlink">
    <title>50F84162-77AD-404F-A840-A1C7C93F4F01</title>
    <g id="Page1" stroke="none" stroke-width="1" fill="none" fill-rule="evenodd" opacity="0.4">
        <g id="Assets" transform="translate(-165.000000, -326.000000)" stroke="#ECB600" stroke-width="2">
            <path d="M223.098811,391.41644 C224.693463,391.41644 226.151675,392.260667 226.953265,393.633603 L226.953265,393.633603 L253.533644,439.221896 C255.264737,442.206539 253.124322,445.950134 249.670663,445.950134 L249.670663,445.950134 L197.08125,445.950134 C195.486598,445.950134 194.011332,445.088852 193.209742,443.707388 L193.209742,443.707388 L166.893716,398.119095 C165.171151,395.14298 167.320094,391.41644 170.756697,391.41644 L170.756697,391.41644 Z M261.32271,339.067504 C263.045276,336.099916 267.334634,336.108443 269.048672,339.084559 L269.048672,339.084559 L295.398808,384.715489 C296.200397,386.096953 296.200397,387.793936 295.398808,389.183927 L295.398808,389.183927 L269.048672,434.814857 C267.334634,437.782445 263.045276,437.7995 261.32271,434.831912 L261.32271,434.831912 L234.716748,389.200982 C233.906631,387.802463 233.906631,386.088425 234.716748,384.698434 L234.716748,384.698434 Z M249.674927,327.950134 L249.868533,327.954102 C253.199769,328.091129 255.236339,331.749883 253.537908,334.669845 L253.537908,334.669845 L226.957528,380.266665 L226.83855,380.459168 C226.015978,381.71809 224.61367,382.483829 223.103075,382.483829 L223.103075,382.483829 L170.760961,382.483829 L170.567829,382.47987 C167.244644,382.343153 165.207916,378.692608 166.89798,375.772646 L166.89798,375.772646 L193.205478,330.184353 L193.325675,329.990633 C194.156368,328.723608 195.566798,327.950134 197.085514,327.950134 L197.085514,327.950134 L249.674927,327.950134 Z" id="Combined-Shape-Copy-2"></path>
        </g>
    </g>
</svg>