<?xml version="1.0" encoding="UTF-8"?>
<svg width="15px" height="13px" viewBox="0 0 15 13" version="1.1" xmlns="http://www.w3.org/2000/svg" xmlns:xlink="http://www.w3.org/1999/xlink">
    <title>Cube_icon</title>
    <g id="Page1" stroke="none" stroke-width="1" fill="none" fill-rule="evenodd" opacity="0.6">
        <path d="M6.68191094,7.01704005 C6.84407896,7.01704005 6.99237164,7.10289371 7.07388926,7.2425143 L7.07388926,7.2425143 L9.77697869,11.8786119 C9.95302205,12.1821349 9.73535267,12.5628395 9.38413316,12.5628395 L9.38413316,12.5628395 L4.03605728,12.5628395 C3.87388926,12.5628395 3.72386216,12.4752514 3.64234454,12.3347636 L3.64234454,12.3347636 L0.966138578,7.69866607 C0.790962426,7.39601024 1.00949901,7.01704005 1.35898411,7.01704005 L1.35898411,7.01704005 Z M10.5690871,1.69341945 C10.7442632,1.39163084 11.1804692,1.39249804 11.3547781,1.69515387 L11.3547781,1.69515387 L14.0344529,6.33558748 C14.1159706,6.47607528 14.1159706,6.64864981 14.0344529,6.79000482 L14.0344529,6.79000482 L11.3547781,11.4304384 C11.1804692,11.732227 10.7442632,11.7339615 10.5690871,11.4321728 L10.5690871,11.4321728 L7.86339603,6.79173924 C7.78101121,6.64951701 7.78101121,6.47520807 7.86339603,6.33385306 L7.86339603,6.33385306 Z M9.38456676,0.562839508 L9.46295777,0.569388769 C9.76620529,0.62094762 9.93991385,0.966825333 9.77741229,1.24619994 L9.77741229,1.24619994 L7.07432286,5.88316471 L7.02818415,5.94834588 C6.94274803,6.04901837 6.81676188,6.10863897 6.68234454,6.10863897 L6.68234454,6.10863897 L1.35941771,6.10863897 L1.28121144,6.10210431 C0.978641264,6.05065914 0.804871119,5.70552035 0.966572183,5.42614574 L0.966572183,5.42614574 L3.64191094,0.79004818 L3.68848325,0.72443742 C3.77464204,0.623062333 3.90135086,0.562839508 4.03649088,0.562839508 L4.03649088,0.562839508 L9.38456676,0.562839508 Z" id="Cube_icon" fill="#0052C8"></path>
    </g>
</svg>